<svg width="32" height="32" viewBox="0 0 32 32" fill="none" xmlns="http://www.w3.org/2000/svg">
<rect width="32" height="32" rx="16" fill="#B7B7B9"/>
<path d="M18.5 10.1667C18.5 8.78596 17.3807 7.66667 16 7.66667C14.6193 7.66667 13.5 8.78596 13.5 10.1667V14.3333C13.5 15.7141 14.6193 16.8333 16 16.8333C17.3807 16.8333 18.5 15.7141 18.5 14.3333V10.1667Z" stroke="white" stroke-width="1.5" stroke-linecap="round" stroke-linejoin="round"/>
<path d="M10.1667 14.3333C10.1667 15.8804 10.7813 17.3642 11.8752 18.4581C12.9692 19.5521 14.4529 20.1667 16 20.1667C17.5471 20.1667 19.0308 19.5521 20.1248 18.4581C21.2188 17.3642 21.8334 15.8804 21.8334 14.3333" stroke="white" stroke-width="1.5" stroke-linecap="round" stroke-linejoin="round"/>
<path d="M12.6667 23.5H19.3334" stroke="white" stroke-width="1.5" stroke-linecap="round" stroke-linejoin="round"/>
<path d="M16 20.1667V23.5" stroke="white" stroke-width="1.5" stroke-linecap="round" stroke-linejoin="round"/>
</svg>
