<svg width="32" height="32" viewBox="0 0 32 32" fill="none" xmlns="http://www.w3.org/2000/svg">
<rect width="32" height="32" rx="16" fill="#B7B7B9"/>
<path d="M18.5 14.3333L22.2942 12.4367C22.4212 12.3732 22.5623 12.3432 22.7042 12.3496C22.846 12.356 22.9839 12.3985 23.1047 12.4732C23.2255 12.5478 23.3252 12.6521 23.3944 12.7761C23.4636 12.9001 23.4999 13.0397 23.5 13.1817V18.8183C23.4999 18.9603 23.4636 19.1 23.3944 19.2239C23.3252 19.3479 23.2255 19.4522 23.1047 19.5268C22.9839 19.6015 22.846 19.644 22.7042 19.6504C22.5623 19.6568 22.4212 19.6268 22.2942 19.5633L18.5 17.6667V14.3333Z" stroke="white" stroke-width="1.5" stroke-linecap="round" stroke-linejoin="round"/>
<path d="M16.8333 11H10.1667C9.24619 11 8.5 11.7462 8.5 12.6667V19.3333C8.5 20.2538 9.24619 21 10.1667 21H16.8333C17.7538 21 18.5 20.2538 18.5 19.3333V12.6667C18.5 11.7462 17.7538 11 16.8333 11Z" stroke="white" stroke-width="1.5" stroke-linecap="round" stroke-linejoin="round"/>
<path d="M11.8333 16H15.1666" stroke="white" stroke-width="1.5" stroke-linecap="round" stroke-linejoin="round"/>
</svg>
