<svg width="26" height="27" viewBox="0 0 26 27" fill="none" xmlns="http://www.w3.org/2000/svg">
<rect y="0.500011" width="26" height="26" rx="13" fill="#E14817"/>
<path d="M17.3839 10.9797L11.2017 7.88856C7.04888 5.80856 5.34443 7.513 7.42443 11.6658L8.05276 12.9224C8.23332 13.2908 8.23332 13.7169 8.05276 14.0852L7.42443 15.3347C5.34443 19.4874 7.04165 21.1919 11.2017 19.1119L17.3839 16.0208C20.1572 14.6341 20.1572 12.3663 17.3839 10.9797ZM15.0511 14.0419H11.1511C10.855 14.0419 10.6094 13.7963 10.6094 13.5002C10.6094 13.2041 10.855 12.9586 11.1511 12.9586H15.0511C15.3472 12.9586 15.5928 13.2041 15.5928 13.5002C15.5928 13.7963 15.3472 14.0419 15.0511 14.0419Z" fill="white"/>
</svg>
